<?xml version="1.0" standalone="no"?>
<!DOCTYPE svg PUBLIC "-//W3C//DTD SVG 20010904//EN"
 "http://www.w3.org/TR/2001/REC-SVG-20010904/DTD/svg10.dtd">
<svg version="1.0" xmlns="http://www.w3.org/2000/svg"
 width="849.000000pt" height="849.000000pt" viewBox="0 0 849.000000 849.000000"
 preserveAspectRatio="xMidYMid meet">
<metadata>
Created by potrace 1.11, written by Peter Selinger 2001-2013
</metadata>
<g transform="translate(0.000000,849.000000) scale(0.100000,-0.100000)"
fill="#000000" stroke="none">
<path d="M3948 8265 c-2 -2 -34 -6 -73 -10 -38 -3 -81 -8 -95 -11 -14 -2 -38
-6 -55 -8 -56 -8 -100 -17 -205 -42 -364 -86 -722 -262 -1020 -501 -96 -77
-286 -263 -346 -338 -21 -27 -42 -52 -45 -55 -15 -12 -139 -192 -184 -265
-150 -248 -271 -561 -320 -830 -49 -272 -61 -575 -31 -790 3 -16 8 -52 11 -80
11 -84 34 -194 66 -315 28 -104 48 -164 96 -285 19 -47 128 -271 146 -300 129
-206 155 -244 251 -360 83 -101 296 -306 401 -386 220 -168 409 -272 673 -373
110 -42 332 -105 422 -120 19 -3 51 -8 70 -12 133 -23 227 -29 460 -29 124 0
249 4 279 8 396 55 685 148 1006 325 211 117 486 342 651 533 21 25 50 58 64
75 45 52 158 212 210 299 140 232 281 599 314 819 4 21 8 48 11 60 36 158 42
642 10 806 -2 14 -7 41 -9 60 -34 247 -151 576 -296 829 -352 614 -919 1045
-1605 1220 -44 11 -96 23 -115 26 -19 3 -53 10 -75 15 -22 5 -69 11 -105 15
-36 4 -74 9 -85 12 -22 5 -472 13 -477 8z m477 -229 c17 -2 50 -7 75 -11 594
-81 1186 -432 1547 -915 210 -282 365 -627 428 -955 46 -244 55 -585 19 -805
-16 -104 -60 -279 -95 -384 -36 -106 -119 -303 -141 -332 -4 -6 -20 -33 -34
-60 -44 -84 -153 -243 -233 -338 -257 -310 -581 -545 -960 -696 -114 -45 -147
-55 -361 -106 -211 -51 -205 -50 -233 -22 -19 19 -86 191 -103 263 -40 170
-43 195 -40 300 4 135 24 203 109 370 34 66 65 127 68 136 6 14 -4 13 -74 -7
-45 -13 -117 -41 -161 -62 -69 -32 -90 -37 -146 -36 -43 1 -82 9 -115 24 -47
20 -192 70 -207 70 -13 0 1 -40 26 -72 68 -91 123 -226 143 -353 11 -73 4
-261 -11 -306 -3 -8 -7 -27 -10 -44 -11 -68 -63 -244 -79 -269 -22 -33 -56
-34 -197 -2 -523 119 -965 385 -1311 791 -243 285 -442 691 -502 1025 -3 14
-10 52 -16 85 -31 174 -35 554 -7 701 3 12 7 37 10 55 21 124 50 243 87 352
33 97 35 103 94 237 182 413 531 805 930 1042 54 33 243 131 255 133 3 1 22 9
44 18 21 9 41 17 43 17 3 0 19 6 36 14 119 54 431 128 602 142 39 4 72 8 74
10 5 4 410 -4 446 -10z"/>
<path d="M4730 7574 c-156 -31 -304 -145 -373 -286 -45 -94 -61 -163 -60 -268
0 -200 110 -384 282 -473 95 -49 128 -56 266 -58 101 -2 186 13 254 44 25 12
53 24 63 28 13 6 39 -22 121 -130 l105 -138 -34 -27 c-53 -42 -99 -131 -120
-231 -3 -11 -4 -51 -4 -90 0 -165 71 -291 198 -352 32 -14 59 -28 60 -29 2 -1
-13 -46 -35 -98 -35 -88 -40 -96 -65 -96 -75 0 -126 -42 -142 -116 -6 -26 -13
-32 -49 -41 -23 -6 -75 -20 -114 -32 -40 -12 -75 -21 -77 -21 -3 0 -12 15 -21
34 -28 58 -83 114 -143 143 -77 38 -183 39 -257 3 -73 -35 -158 -126 -185
-197 -55 -146 8 -302 153 -378 76 -40 198 -44 281 -10 71 29 119 73 154 140
20 40 26 67 28 135 l3 84 121 35 121 34 28 -27 c74 -70 213 -31 233 66 8 39
-13 96 -44 119 l-21 17 42 99 42 100 41 -7 c229 -42 445 133 462 373 13 197
-109 371 -294 421 -70 18 -208 14 -274 -9 -47 -16 -48 -16 -65 5 -9 12 -29 39
-46 60 -16 20 -37 48 -45 60 -8 12 -20 28 -25 34 -30 33 -75 95 -75 103 0 5
16 25 36 44 161 156 199 430 90 654 -64 130 -148 202 -292 251 -63 21 -102 27
-189 30 -60 1 -121 0 -135 -2z"/>
<path d="M3310 7563 c-100 -15 -220 -75 -297 -149 -209 -203 -212 -557 -7
-772 47 -48 52 -62 31 -84 -7 -7 -50 -65 -96 -129 l-84 -116 -61 19 c-36 11
-101 21 -156 23 -117 5 -202 -20 -275 -80 -191 -156 -205 -419 -34 -600 85
-90 190 -134 308 -130 l71 2 19 -66 c36 -120 36 -118 6 -137 -75 -49 -71 -154
8 -203 58 -35 131 -27 183 21 21 19 22 19 130 -16 60 -19 121 -38 137 -42 23
-5 27 -12 28 -43 3 -99 34 -173 98 -239 60 -62 117 -85 223 -90 79 -4 93 -2
141 22 199 97 245 363 89 514 -99 96 -258 119 -378 55 -42 -22 -134 -116 -134
-137 0 -6 -7 -19 -14 -29 -13 -17 -20 -16 -149 24 l-135 42 -5 41 c-7 51 -51
93 -107 102 -40 7 -40 7 -60 78 -12 39 -25 80 -29 92 -8 18 -2 24 44 48 76 40
145 112 185 192 34 66 35 74 35 179 0 106 -1 113 -36 185 -20 41 -50 90 -66
109 l-30 35 61 84 c34 46 68 93 76 106 8 12 27 37 41 55 l26 33 43 -22 c79
-41 140 -53 250 -53 181 1 308 49 417 158 104 104 156 246 148 404 -12 228
-176 432 -400 497 -56 16 -189 25 -245 17z"/>
<path d="M3537 6370 c-66 -21 -96 -38 -138 -83 -53 -55 -73 -104 -73 -182 -1
-113 53 -193 174 -256 39 -21 59 -24 145 -24 75 0 108 5 132 18 l31 17 66 -78
c49 -59 62 -79 52 -87 -25 -20 -64 -92 -74 -138 -36 -170 95 -311 288 -311 81
0 140 25 196 82 94 96 97 260 7 354 l-26 27 28 38 c16 21 32 40 35 43 3 3 16
19 28 36 l21 31 58 -19 c83 -29 191 -22 267 17 61 31 117 90 143 152 15 36 20
122 9 170 -15 72 -79 142 -164 180 -76 36 -202 38 -275 5 -97 -43 -155 -106
-180 -194 l-13 -43 -159 0 -158 0 -4 30 c-5 41 -39 103 -75 142 -73 76 -225
109 -341 73z m744 -297 c5 -55 27 -100 75 -153 l36 -39 -49 -62 c-26 -35 -51
-67 -54 -72 -4 -5 -28 -1 -55 8 -66 23 -148 23 -211 0 l-51 -18 -29 33 c-15
19 -42 52 -60 74 l-32 41 28 30 c36 37 70 102 73 138 l2 27 163 0 c90 0 163
-3 164 -7z"/>
<path d="M3340 2707 c-1 -99 -1 -1834 0 -1894 l0 -43 118 1 117 1 0 297 c0
163 1 303 3 312 3 14 29 16 210 14 230 -1 249 -6 295 -67 48 -66 52 -89 52
-328 l1 -225 119 0 120 0 -1 281 -1 280 -26 57 c-44 96 -111 148 -225 171
l-53 11 42 45 c55 60 135 162 185 235 52 77 134 212 134 222 0 5 -60 8 -133 8
l-132 0 -40 -70 c-60 -103 -108 -172 -173 -246 -94 -108 -154 -137 -287 -135
l-90 1 0 575 0 575 -117 2 -118 2 0 -82z"/>
<path d="M4704 2615 c-38 -17 -53 -34 -69 -81 -18 -52 -4 -102 39 -141 29 -27
44 -33 82 -33 25 0 55 5 67 12 28 14 67 58 69 78 6 60 3 79 -15 112 -32 59
-107 82 -173 53z"/>
<path d="M2272 2098 c-138 -19 -266 -84 -374 -192 -152 -151 -218 -339 -195
-556 27 -267 224 -500 487 -575 89 -26 281 -26 365 -1 51 16 111 41 123 51 6
6 -102 205 -110 205 -5 0 -25 -7 -46 -16 -44 -19 -189 -27 -247 -14 -104 24
-192 84 -259 178 -155 216 -74 525 169 645 191 95 436 25 558 -158 20 -31 69
-148 67 -162 0 -2 0 -167 0 -367 l0 -364 120 -1 120 0 -1 377 c0 335 -3 385
-19 450 -46 176 -174 337 -342 430 -109 61 -275 89 -416 70z"/>
<path d="M5725 2099 c-144 -17 -266 -79 -381 -193 -135 -135 -193 -266 -199
-451 -4 -116 6 -184 42 -275 62 -154 177 -279 325 -354 115 -58 192 -75 328
-72 83 2 122 8 187 30 46 15 86 32 89 38 10 15 -98 218 -111 208 -5 -4 -39
-16 -75 -25 -81 -21 -192 -16 -270 14 -109 41 -208 140 -252 251 -30 75 -32
232 -4 305 130 341 586 394 781 90 66 -103 69 -122 71 -515 1 -195 2 -361 3
-368 1 -10 28 -12 118 -10 l118 3 0 345 c1 450 -11 523 -107 671 -145 225
-393 340 -663 308z"/>
<path d="M4651 2080 c-4 -3 -7 -298 -7 -657 l0 -652 113 0 c63 0 115 4 118 10
9 13 8 1289 0 1297 -8 8 -213 10 -224 2z"/>
</g>
</svg>
